<svg xmlns="http://www.w3.org/2000/svg" width="66" height="66" viewBox="0 0 66 66">
    <defs>
        <filter id="5yr7tgcr7a" width="135%" height="135%" x="-17.5%" y="-17.5%" filterUnits="objectBoundingBox">
            <feOffset dy="2" in="SourceAlpha" result="shadowOffsetOuter1"/>
            <feGaussianBlur in="shadowOffsetOuter1" result="shadowBlurOuter1" stdDeviation="1.5"/>
            <feColorMatrix in="shadowBlurOuter1" result="shadowMatrixOuter1" values="0 0 0 0 0.0389492754 0 0 0 0 0.0389492754 0 0 0 0 0.0389492754 0 0 0 0.667941434 0"/>
            <feMerge>
                <feMergeNode in="shadowMatrixOuter1"/>
                <feMergeNode in="SourceGraphic"/>
            </feMerge>
        </filter>
    </defs>
    <g fill="none" fill-rule="evenodd" filter="url(#5yr7tgcr7a)" transform="translate(3 1)">
        <rect width="60" height="60" fill="#00B900" rx="30"/>
        <g>
            <path fill="#FFF" d="M44.515 18.062C44.515 8.103 34.53 0 22.257 0 9.985 0 0 8.103 0 18.062c0 8.93 7.918 16.407 18.614 17.821.725.156 1.712.477 1.961 1.097.225.563.147 1.445.072 2.013 0 0-.261 1.57-.318 1.905-.097.563-.447 2.201 1.928 1.2 2.376-1 12.819-7.547 17.489-12.922h-.001c3.225-3.538 4.77-7.127 4.77-11.114" transform="translate(8 12)"/>
            <g fill="#00B900">
                <path d="M10.434 0H8.872c-.239 0-.433.194-.433.433v9.698c0 .239.194.433.433.433h1.562c.24 0 .433-.194.433-.433V.433c0-.239-.194-.433-.433-.433M21.18 0h-1.561c-.24 0-.434.194-.434.433v5.762L14.741.193c-.01-.016-.022-.03-.034-.044l-.002-.003-.027-.027-.008-.007-.023-.02-.011-.008-.023-.016L14.6.061l-.023-.014-.014-.006c-.008-.004-.016-.008-.025-.01l-.014-.006L14.5.017l-.016-.004-.025-.005-.018-.003-.022-.003-.023-.001L14.38 0h-1.561c-.24 0-.434.194-.434.433v9.698c0 .239.195.433.434.433h1.561c.24 0 .434-.194.434-.433v-5.76l4.45 6.01c.03.043.068.079.11.107l.004.003.027.017.012.006.02.01.022.01c.005 0 .009.003.013.004l.03.01h.006c.035.01.072.016.111.016h1.56c.24 0 .434-.194.434-.433V.433c0-.239-.194-.433-.433-.433M6.67 8.135H2.429V.433c0-.24-.194-.433-.433-.433H.434C.194 0 0 .194 0 .433V10.131c0 .116.047.222.122.3l.005.006c.002.002.005.003.006.006.079.075.184.121.3.121h6.238c.239 0 .433-.194.433-.434V8.57c0-.24-.194-.435-.433-.435M29.801 2.429c.24 0 .433-.195.433-.434V.434c0-.24-.193-.434-.433-.434h-6.237c-.117 0-.223.047-.3.122l-.006.005c-.002.002-.005.005-.006.008-.075.077-.121.182-.121.298V10.132c0 .116.046.222.122.3 0 .002.003.004.005.006l.007.005c.077.075.182.122.299.122h6.237c.24 0 .433-.194.433-.434V8.57c0-.24-.193-.435-.433-.435H25.56v-1.64H29.8c.24 0 .433-.193.433-.433v-1.56c0-.24-.193-.435-.433-.435H25.56V2.43H29.8z" transform="translate(8 12) translate(7.301 13.25)"/>
            </g>
        </g>
    </g>
</svg>
