<?xml version="1.0" encoding="UTF-8"?>
<svg width="45px" height="43px" viewBox="0 0 45 43" version="1.1" xmlns="http://www.w3.org/2000/svg" xmlns:xlink="http://www.w3.org/1999/xlink">
    <title>ABF47E0E-142A-4F98-A9F0-35963AD23390</title>
    <g id="Page-1" stroke="none" stroke-width="1" fill="none" fill-rule="evenodd">
        <g id="Desktop_1440" transform="translate(-1221.000000, -9.000000)">
            <g id="line_logo" transform="translate(1210.000000, 0.000000)">
                <g id="img_line_logo" transform="translate(11.000000, 9.000000)">
                    <path d="M44.5148491,18.0624906 C44.5148491,8.1030566 34.5304528,0 22.2571698,0 C9.98541509,0 -3.52925236e-14,8.1030566 -3.52925236e-14,18.0624906 C-3.52925236e-14,26.9913396 7.91813208,34.4693208 18.6142075,35.883 C19.3391321,36.0393962 20.3259057,36.3603396 20.5750189,36.9803208 C20.7996792,37.5432453 20.7217358,38.424566 20.6468491,38.9925849 C20.6468491,38.9925849 20.3860189,40.5631698 20.3294717,40.8983774 C20.2321698,41.4607925 19.8821887,43.0991321 22.2571698,42.0980943 C24.6331698,41.0970566 35.0755472,34.5508302 39.7455283,29.1757925 L39.7445094,29.1757925 C42.9697358,25.638283 44.5148491,22.0488113 44.5148491,18.0624906" id="Fill-4" fill="#FFFFFF"></path>
                    <g id="Group-5" transform="translate(7.301157, 13.249766)" fill="#00B900">
                        <path d="M10.4338189,-6.1083214e-14 L8.87240377,-6.1083214e-14 C8.63347925,-6.1083214e-14 8.43887547,0.19409434 8.43887547,0.433018868 L8.43887547,10.1311132 C8.43887547,10.3700377 8.63347925,10.5636226 8.87240377,10.5636226 L10.4338189,10.5636226 C10.6732528,10.5636226 10.8673472,10.3700377 10.8673472,10.1311132 L10.8673472,0.433018868 C10.8673472,0.19409434 10.6732528,-6.1083214e-14 10.4338189,-6.1083214e-14" id="Fill-6"></path>
                        <path d="M21.1799208,-6.1083214e-14 L19.6190151,-6.1083214e-14 C19.3790717,-6.1083214e-14 19.1854868,0.19409434 19.1854868,0.433018868 L19.1854868,6.19471698 L14.7406755,0.192566038 C14.7304868,0.177283019 14.7187698,0.162509434 14.7070528,0.148754717 C14.706034,0.147735849 14.7050151,0.146716981 14.7045057,0.145698113 C14.6958453,0.136528302 14.6866755,0.127358491 14.6780151,0.119207547 C14.6754679,0.116660377 14.6729208,0.114113208 14.6703736,0.111566038 C14.6627321,0.10545283 14.6550906,0.0983207547 14.6469396,0.0927169811 C14.6433736,0.0891509434 14.6398075,0.0866037736 14.6357321,0.0835471698 C14.6286,0.0784528302 14.6209585,0.0733584906 14.613317,0.0682641509 C14.6092415,0.0652075472 14.6046566,0.0631698113 14.6000717,0.0606226415 C14.5924302,0.0560377358 14.5847887,0.0514528302 14.5771472,0.0473773585 C14.5725623,0.0453396226 14.5679774,0.0427924528 14.5633925,0.040754717 C14.5552415,0.0371886792 14.5470906,0.0331132075 14.5384302,0.0305660377 C14.5333358,0.0285283019 14.5292604,0.027 14.524166,0.0254716981 C14.5160151,0.0219056604 14.5073547,0.0193584906 14.4986943,0.0168113208 C14.4936,0.0152830189 14.4890151,0.0142641509 14.4834113,0.0127358491 C14.4752604,0.0106981132 14.4671094,0.00916981132 14.4584491,0.00764150943 C14.4523358,0.00662264151 14.4462226,0.00560377358 14.4401094,0.00509433962 C14.4329774,0.00356603774 14.4253358,0.00305660377 14.4176943,0.00203773585 C14.4100528,0.00152830189 14.4029208,0.00101886792 14.3952792,0.000509433962 C14.3896755,0.000509433962 14.3850906,-6.1083214e-14 14.3799962,-6.1083214e-14 L12.8185811,-6.1083214e-14 C12.5796566,-6.1083214e-14 12.3850528,0.19409434 12.3850528,0.433018868 L12.3850528,10.1311132 C12.3850528,10.3700377 12.5796566,10.5636226 12.8185811,10.5636226 L14.3799962,10.5636226 C14.6194302,10.5636226 14.8135245,10.3700377 14.8135245,10.1311132 L14.8135245,4.37145283 L19.2634302,10.3807358 C19.2945057,10.4240377 19.3322038,10.4596981 19.3734679,10.487717 C19.3749962,10.4887358 19.3765245,10.4897547 19.3780528,10.491283 C19.3867132,10.4968868 19.395883,10.5024906 19.4050528,10.5075849 C19.4086189,10.5096226 19.4126943,10.5116604 19.4172792,10.5142075 C19.4239019,10.5177736 19.4305245,10.5213396 19.4376566,10.5243962 C19.4447887,10.5274528 19.4514113,10.53 19.4590528,10.5330566 C19.4636377,10.5345849 19.4677132,10.5366226 19.4717887,10.5381509 C19.4819774,10.541717 19.4916566,10.5447736 19.5013358,10.5478302 C19.5033736,10.5478302 19.5059208,10.5488491 19.5079585,10.5488491 C19.5426,10.5585283 19.5797887,10.5636226 19.6190151,10.5636226 L21.1799208,10.5636226 C21.4193547,10.5636226 21.6134491,10.3700377 21.6134491,10.1311132 L21.6134491,0.433018868 C21.6134491,0.19409434 21.4193547,-6.1083214e-14 21.1799208,-6.1083214e-14" id="Fill-8"></path>
                        <path d="M6.6705283,8.13525283 L2.4284717,8.13525283 L2.4284717,0.433120755 C2.4284717,0.193686792 2.23437736,0.000101886792 1.9949434,0.000101886792 L0.433528302,0.000101886792 C0.194603774,0.000101886792 -6.85489401e-14,0.193686792 -6.85489401e-14,0.433120755 L-6.85489401e-14,10.1301962 L-6.85489401e-14,10.1312151 C-6.85489401e-14,10.247366 0.0468679245,10.3528189 0.121754717,10.4302528 C0.123283019,10.4322906 0.124811321,10.4348377 0.127358491,10.4373849 C0.129396226,10.4389132 0.131943396,10.4404415 0.133471698,10.4429887 C0.211924528,10.5178755 0.316867925,10.564234 0.433018868,10.564234 L0.433528302,10.564234 L6.6705283,10.564234 C6.90996226,10.564234 7.10354717,10.3696302 7.10354717,10.1301962 L7.10354717,8.56929057 C7.10354717,8.3298566 6.90996226,8.13525283 6.6705283,8.13525283" id="Fill-10"></path>
                        <path d="M29.8014792,2.42852264 C30.0409132,2.42852264 30.2344981,2.2344283 30.2344981,1.99499434 L30.2344981,0.433579245 C30.2344981,0.194145283 30.0409132,5.09433962e-05 29.8014792,5.09433962e-05 L23.5649887,5.09433962e-05 L23.5639698,5.09433962e-05 C23.4468,5.09433962e-05 23.3413472,0.0469188679 23.2634038,0.122315094 C23.2618755,0.12435283 23.2598377,0.125371698 23.2583094,0.1269 C23.2557623,0.12944717 23.2532151,0.13199434 23.2516868,0.134541509 C23.1773094,0.211975472 23.1309509,0.316918868 23.1309509,0.433069811 L23.1309509,0.433579245 L23.1309509,10.1301453 L23.1309509,10.1311642 C23.1309509,10.2473151 23.1773094,10.3527679 23.2527057,10.4302019 C23.2537245,10.4327491 23.2562717,10.4352962 23.2583094,10.437334 C23.2598377,10.4388623 23.2623849,10.4414094 23.2649321,10.4424283 C23.342366,10.5173151 23.4473094,10.564183 23.5639698,10.564183 L23.5649887,10.564183 L29.8014792,10.564183 C30.0409132,10.564183 30.2344981,10.3695792 30.2344981,10.1301453 L30.2344981,8.56923962 C30.2344981,8.32980566 30.0409132,8.13520189 29.8014792,8.13520189 L25.5599321,8.13520189 L25.5599321,6.4958434 L29.8014792,6.4958434 C30.0409132,6.4958434 30.2344981,6.30225849 30.2344981,6.06231509 L30.2344981,4.50140943 C30.2344981,4.26197547 30.0409132,4.0673717 29.8014792,4.0673717 L25.5599321,4.0673717 L25.5599321,2.42852264 L29.8014792,2.42852264 Z" id="Fill-12"></path>
                    </g>
                </g>
            </g>
        </g>
    </g>
</svg>